# xmcd
#
# Track frame offsets: 
#        183
#        17143
#        36128
#        55210
#        75618
#        92778
#        113623
#        130848
#        153468
#        168948
#        195805
#
# Disc length: 2667 seconds
#
# Revision: 9
# Processed by: cddbd v1.5.2PL0 Copyright (c) Steve Scherf et al.
# Submitted via: ExactAudioCopyFreeDBPlugin 1.0
#
DISCID=7c0a690b
DTITLE=Everything But The Girl - Worldwide
DYEAR=1991
DGENRE=Pop
TTITLE0=Old Friends
TTITLE1=Understanding
TTITLE2=You Lift Me Up
TTITLE3=Talk to Me Like the Sea
TTITLE4=British Summertime
TTITLE5=Twin Cities
TTITLE6=Frozen River
TTITLE7=One Place
TTITLE8=Politics Aside
TTITLE9=Boxing and Pop Music
TTITLE10=Feel Alright
EXTD=YEAR: 1991
EXTT0=
EXTT1=
EXTT2=
EXTT3=
EXTT4=
EXTT5=
EXTT6=
EXTT7=
EXTT8=
EXTT9=
EXTT10=
PLAYORDER=
